<?xml version="1.0" encoding="UTF-8"?>
<svg width="98px" height="98px" viewBox="0 0 98 98" version="1.1" xmlns="http://www.w3.org/2000/svg" xmlns:xlink="http://www.w3.org/1999/xlink">
    <title>fa-clipboard</title>
    <g id="Page-1" stroke="none" stroke-width="1" fill="none" fill-rule="evenodd">
        <g id="fa-clipboard" fill="#FFFFFF">
            <path d="M1.70434783,82.4478261 C2.6826087,83.426087 3.94782609,83.9130435 5.41304348,83.9130435 L34.9826087,83.9130435 L34.9826087,92.6956522 C34.9826087,94.0608696 35.4695652,95.3304348 36.5434783,96.3086957 C37.5217391,97.3782609 38.7869565,97.8695652 40.2521739,97.8695652 L92.4652174,97.8695652 C93.926087,97.8695652 95.1956522,97.3782609 96.1695652,96.3086957 C97.2434783,95.3304348 97.7347826,94.0608696 97.7347826,92.6 L97.7347826,56.1 C97.7347826,54.6347826 97.3434783,52.9782609 96.6608696,51.2217391 C95.8782609,49.5608696 95,48.0956522 94.026087,47.1217391 L71.773913,24.8695652 C71.2869565,24.3826087 70.6043478,23.8956522 69.8217391,23.4086957 L69.8217391,5.54782609 C69.8217391,4.0826087 69.3347826,2.8173913 68.2608696,1.83913043 C67.2869565,0.765217391 66.0173913,0.27826087 64.5521739,0.27826087 L5.41304348,0.27826087 C3.94782609,0.27826087 2.6826087,0.765217391 1.70434783,1.83913043 C0.630434783,2.8173913 0.143478261,4.0826087 0.143478261,5.54782609 L0.143478261,78.7391304 C0.143478261,80.2043478 0.630434783,81.373913 1.70434783,82.4478261 L1.70434783,82.4478261 Z M14.1,8.96521739 C14.1,8.47391304 14.2956522,8.08695652 14.5869565,7.69565217 C14.9782609,7.40434783 15.3652174,7.20869565 15.8565217,7.20869565 L54.1086957,7.20869565 C54.6,7.20869565 54.9869565,7.40434783 55.3782609,7.69565217 C55.673913,8.08695652 55.8652174,8.47391304 55.8652174,8.96521739 L55.8652174,12.4782609 C55.8652174,12.9652174 55.673913,13.3565217 55.3782609,13.7478261 C54.9869565,14.0391304 54.6,14.2347826 54.1086957,14.2347826 L15.8565217,14.2347826 C15.3652174,14.2347826 14.9782609,14.0391304 14.5869565,13.7478261 C14.2956522,13.3565217 14.1,12.9652174 14.1,12.4782609 L14.1,8.96521739 L14.1,8.96521739 Z M41.9130435,28.1869565 L62.8956522,28.1869565 L62.8956522,50.8304348 C62.8956522,52.1956522 63.3826087,53.4652174 64.4565217,54.4391304 C65.4304348,55.5130435 66.7,56.0043478 68.1652174,56.0043478 L90.8043478,56.0043478 L90.8043478,90.9391304 L41.9130435,90.9391304 L41.9130435,28.1869565 L41.9130435,28.1869565 Z M69.8217391,32.773913 L86.2173913,49.073913 L69.8217391,49.073913 L69.8217391,32.773913 L69.8217391,32.773913 Z" id="Fill-54"></path>
        </g>
    </g>
</svg>
