<?xml version="1.0" encoding="UTF-8"?>
<svg width="98px" height="84px" viewBox="0 0 98 84" version="1.1" xmlns="http://www.w3.org/2000/svg" xmlns:xlink="http://www.w3.org/1999/xlink">
    <title>fa-briefcase</title>
    <g id="Page-1" stroke="none" stroke-width="1" fill="none" fill-rule="evenodd">
        <g id="fa-briefcase" fill="#FFFFFF">
            <path d="M2.68695652,81.373913 C4.44347826,83.0347826 6.49565217,83.9130435 8.83478261,83.9130435 L89.0565217,83.9130435 C91.3956522,83.9130435 93.4478261,83.0347826 95.2043478,81.373913 C96.8608696,79.6173913 97.7391304,77.5695652 97.7391304,75.226087 L97.7391304,49.073913 L61.1434783,49.073913 L61.1434783,57.7608696 C61.1434783,58.7347826 60.8521739,59.5173913 60.1695652,60.2 C59.4869565,60.8826087 58.6086957,61.273913 57.7304348,61.273913 L40.2608696,61.273913 C39.2826087,61.273913 38.5043478,60.8826087 37.8217391,60.2 C37.1391304,59.5173913 36.7478261,58.7347826 36.7478261,57.7608696 L36.7478261,49.073913 L0.152173913,49.073913 L0.152173913,75.226087 C0.152173913,77.5695652 1.03043478,79.6173913 2.68695652,81.373913 L2.68695652,81.373913 Z M97.7391304,43.8043478 L97.7391304,22.8217391 C97.7391304,20.4782609 96.8608696,18.4304348 95.2043478,16.673913 C93.4478261,15.0130435 91.3956522,14.1347826 89.0565217,14.1347826 L69.8304348,14.1347826 L69.8304348,5.45217391 C69.8304348,3.98695652 69.3434783,2.8173913 68.2695652,1.83913043 C67.2913043,0.765217391 66.0217391,0.27826087 64.6565217,0.27826087 L33.3304348,0.27826087 C31.8652174,0.27826087 30.6,0.765217391 29.6217391,1.83913043 C28.5478261,2.8173913 28.0608696,3.98695652 28.0608696,5.45217391 L28.0608696,14.1347826 L8.83478261,14.1347826 C6.49565217,14.1347826 4.44347826,15.0130435 2.68695652,16.673913 C1.03043478,18.4304348 0.152173913,20.4782609 0.152173913,22.8217391 L0.152173913,43.8043478 L97.7391304,43.8043478 L97.7391304,43.8043478 Z M34.9913043,7.20869565 L62.9,7.20869565 L62.9,14.1391304 L34.9913043,14.1391304 L34.9913043,7.20869565 Z M42.0173913,56.0043478 L55.973913,56.0043478 L55.973913,49.073913 L42.0173913,49.073913 L42.0173913,56.0043478 Z" id="Fill-47"></path>
        </g>
    </g>
</svg>
