<?xml version="1.0" encoding="UTF-8"?>
<svg width="101px" height="94px" viewBox="0 0 101 94" version="1.1" xmlns="http://www.w3.org/2000/svg" xmlns:xlink="http://www.w3.org/1999/xlink">
    <title>fa-institution (alias)</title>
    <g id="Page-1" stroke="none" stroke-width="1" fill="none" fill-rule="evenodd">
        <g id="fa-institution-(alias)" fill="#FCFCFC">
            <path d="M0.661,93.9703844 L100.661,93.9703844 L100.661,87.3397687 C100.661,86.4079884 100.378138,85.6592363 99.6335458,85.0061581 C98.8847937,84.3530799 98.0445275,83.9787038 97.1127471,83.9787038 L4.30492679,83.9787038 C3.27747255,83.9787038 2.43720632,84.3530799 1.68845424,85.0061581 C1.03537604,85.6592363 0.661,86.4079884 0.661,87.3397687 L0.661,93.9703844 L0.661,93.9703844 Z M7.38312978,27.3064908 C7.38312978,28.1425973 7.75750582,28.9870233 8.41058403,29.6401015 C9.15933611,30.2931797 9.99960233,30.5718819 10.9313827,30.5718819 L90.4821314,30.5718819 C91.4180715,30.5718819 92.2583378,30.2931797 93.0029301,29.6401015 C93.6560083,28.9870233 94.0303844,28.1425973 94.0303844,27.3064908 L100.661,27.3064908 L100.661,20.5802013 L50.7067571,0.601 L0.756673877,20.5802013 L0.756673877,27.3064908 L7.38312978,27.3064908 L7.38312978,27.3064908 Z M94.0303844,80.6176389 L94.0303844,77.256574 C94.0303844,76.4163078 93.6560083,75.6675557 93.0029301,75.0144775 C92.2583378,74.3613993 91.4180715,73.9870233 90.4821314,73.9870233 L87.3997687,73.9870233 L87.3997687,33.9329468 L74.051183,33.9329468 L74.051183,73.9870233 L67.3290532,73.9870233 L67.3290532,33.9329468 L53.9763078,33.9329468 L53.9763078,73.9870233 L47.3456922,73.9870233 L47.3456922,33.9329468 L33.9929468,33.9329468 L33.9929468,73.9870233 L27.3664908,73.9870233 L27.3664908,33.9329468 L14.0137454,33.9329468 L14.0137454,73.9870233 L10.9313827,73.9870233 C9.99960233,73.9870233 9.15933611,74.3613993 8.41058403,75.0144775 C7.75750582,75.6675557 7.38312978,76.4163078 7.38312978,77.256574 L7.38312978,80.6176389 L94.0303844,80.6176389 L94.0303844,80.6176389 Z" id="Fill-59"></path>
        </g>
    </g>
</svg>
