<?xml version="1.0" encoding="UTF-8"?>
<svg width="101px" height="100px" viewBox="0 0 101 100" version="1.1" xmlns="http://www.w3.org/2000/svg" xmlns:xlink="http://www.w3.org/1999/xlink">
    <title>fa-flickr</title>
    <g id="Page-1" stroke="none" stroke-width="1" fill="none" fill-rule="evenodd">
        <g id="fa-flickr" fill="#FFFFFF">
            <path d="M6.35250821,94.4601229 C10.0902915,98.0731402 14.4051179,99.9446311 19.6556897,99.9446311 L82.0855088,99.9446311 C87.3360807,99.9446311 91.650907,98.0731402 95.3834918,94.4601229 C99.0017076,90.841907 100.868,86.4075132 100.868,81.1569414 L100.868,18.7271223 C100.868,13.5961179 99.0017076,9.16172406 95.3834918,5.54350821 C91.650907,1.92529237 87.3360807,0.059 82.0855088,0.059 L19.6556897,0.059 C14.4051179,0.059 10.0902915,1.92529237 6.35250821,5.54350821 C2.73429237,9.16172406 0.868,13.5961179 0.868,18.7271223 L0.868,81.1569414 C0.868,86.4075132 2.73429237,90.841907 6.35250821,94.4601229 L6.35250821,94.4601229 Z M32.610566,36.2307613 C36.3431508,36.2307613 39.6078628,37.6343795 42.2955317,40.3168499 C44.9780021,42.9993202 46.3764217,46.1496633 46.3764217,50.0018156 C46.3764217,53.8539678 44.9780021,57.0043109 42.2955317,59.6867812 C39.6078628,62.3692516 36.3431508,63.7676712 32.610566,63.7676712 C28.7584138,63.7676712 25.4885032,62.3692516 22.8060329,59.6867812 C20.1235625,57.0043109 18.7251429,53.8539678 18.7251429,50.0018156 C18.7251429,46.1496633 20.1235625,42.9993202 22.8060329,40.3168499 C25.4885032,37.6343795 28.7584138,36.2307613 32.610566,36.2307613 L32.610566,36.2307613 Z M69.2450015,36.2307613 C73.0971537,36.2307613 76.2474968,37.6343795 78.9299671,40.3168499 C81.6176361,42.9993202 83.0160557,46.1496633 83.0160557,50.0018156 C83.0160557,53.8539678 81.6176361,57.0043109 78.9299671,59.6867812 C76.2474968,62.3692516 73.0971537,63.7676712 69.2450015,63.7676712 C65.3980478,63.7676712 62.2477047,62.3692516 59.5652344,59.6867812 C56.8775654,57.0043109 55.4791458,53.8539678 55.4791458,50.0018156 C55.4791458,46.1496633 56.8775654,42.9993202 59.5652344,40.3168499 C62.2477047,37.6343795 65.3980478,36.2307613 69.2450015,36.2307613 L69.2450015,36.2307613 Z" id="Fill-216"></path>
        </g>
    </g>
</svg>
