<?xml version="1.0" encoding="UTF-8"?>
<svg width="101px" height="67px" viewBox="0 0 101 67" version="1.1" xmlns="http://www.w3.org/2000/svg" xmlns:xlink="http://www.w3.org/1999/xlink">
    <title>fa-graduation-cap</title>
    <g id="Page-1" stroke="none" stroke-width="1" fill="none" fill-rule="evenodd">
        <g id="Desktop-HD" transform="translate(-628.000000, -593.000000)">
            <g id="MiddelCol" transform="translate(512.940934, 269.000000)"></g>
            <g id="fa-graduation-cap" transform="translate(628.116758, 593.000000)" fill="#FFFFFF">
                <path d="M1.12413793,18.2827586 L15.5206897,22.7724138 C13.0413793,26.3310345 11.5724138,31.0551724 11.262069,37.0896552 C9.40344828,38.1758621 8.47586207,39.7206897 8.47586207,41.8896552 C8.47586207,43.8241379 9.32758621,45.3724138 10.9517241,46.4551724 L8.47586207,65.1862069 C8.4,65.5724138 8.55517241,65.962069 8.7862069,66.2689655 C9.09655172,66.5793103 9.40344828,66.7344828 9.86896552,66.7344828 L18.1517241,66.7344828 C18.6172414,66.7344828 18.9241379,66.5793103 19.2344828,66.2689655 C19.4655172,65.962069 19.6206897,65.5724138 19.5448276,65.1862069 L17.0689655,46.4551724 C18.6931034,45.3724138 19.5448276,43.8241379 19.5448276,41.8896552 C19.5448276,39.7206897 18.6172414,38.1758621 16.8344828,37.1689655 C16.9896552,34.2275862 17.4551724,31.6724138 18.3068966,29.4275862 C19.0793103,27.1827586 20.0862069,25.5586207 21.3241379,24.5517241 L49.4965517,33.4517241 C49.6517241,33.5310345 49.8068966,33.5310345 49.962069,33.5310345 C50.1172414,33.5310345 50.2724138,33.5310345 50.3482759,33.4517241 L98.7241379,18.2827586 C99.4206897,18.0517241 99.7310345,17.5862069 99.7310345,16.8896552 C99.7310345,16.2724138 99.4206897,15.8068966 98.7241379,15.5724138 L50.3482759,0.403448276 C50.2724138,0.327586207 50.1172414,0.327586207 49.962069,0.327586207 C49.8068966,0.327586207 49.6517241,0.327586207 49.4965517,0.403448276 L1.12413793,15.5724138 C0.503448276,15.8068966 0.193103448,16.2724138 0.193103448,16.8896552 C0.193103448,17.5862069 0.503448276,18.0517241 1.12413793,18.2827586 L1.12413793,18.2827586 Z M25.8137931,50.0931034 C28.2896552,51.7965517 31.6965517,53.1896552 36.0310345,54.1965517 C40.2862069,55.2034483 44.9310345,55.6655172 49.962069,55.6655172 C54.9931034,55.6655172 59.637931,55.2034483 63.8931034,54.1965517 C68.2275862,53.1896552 71.5551724,51.7965517 74.0344828,50.0931034 C76.5103448,48.4689655 77.6724138,46.6103448 77.5931034,44.6 L76.8206897,30.9 L52.0517241,38.7931034 C51.3551724,39.0241379 50.7344828,39.1034483 49.962069,39.1034483 C49.1896552,39.1034483 48.4931034,39.0241379 47.8724138,38.7931034 L23.1034483,30.9 L22.3310345,44.6 C22.1758621,46.6103448 23.337931,48.4689655 25.8137931,50.0931034 L25.8137931,50.0931034 Z" id="Fill-31"></path>
            </g>
        </g>
    </g>
</svg>
