<?xml version="1.0" encoding="UTF-8"?>
<svg width="98px" height="78px" viewBox="0 0 98 78" version="1.1" xmlns="http://www.w3.org/2000/svg" xmlns:xlink="http://www.w3.org/1999/xlink">
    <title>fa-home</title>
    <g id="Page-1" stroke="none" stroke-width="1" fill="none" fill-rule="evenodd">
        <g id="fa-home" fill="#FFFFFF">
            <path d="M1.34761905,40.8761905 L4.98095238,45.2571429 C5.3047619,45.6857143 5.72857143,45.8952381 6.26666667,45.8952381 C6.69047619,46.0047619 7.22857143,45.7904762 7.65238095,45.4714286 L49.0190476,11.052381 L90.2761905,45.4714286 C90.5952381,45.7904762 91.0238095,45.8952381 91.452381,45.8952381 L91.6666667,45.8952381 C92.2,45.8952381 92.6285714,45.6857143 92.947619,45.2571429 L96.5809524,40.8761905 C96.9,40.447619 97.1142857,40.0190476 97.0095238,39.4857143 C97.0095238,38.952381 96.7952381,38.5238095 96.3666667,38.2 L83.3285714,27.3 L83.3285714,3.03809524 C83.3285714,2.3952381 83.1142857,1.96666667 82.7952381,1.64761905 C82.4714286,1.21904762 81.9380952,1.11428571 81.4047619,1.11428571 L69.9666667,1.11428571 C69.4333333,1.11428571 68.9,1.21904762 68.5761905,1.64761905 C68.2571429,1.96666667 68.0428571,2.3952381 68.0428571,3.03809524 L68.0428571,14.5809524 L53.5095238,2.5047619 C52.2238095,1.43333333 50.7285714,0.9 49.0190476,0.9 C47.2,0.9 45.7047619,1.43333333 44.4238095,2.5047619 L1.56190476,38.2 C1.13333333,38.5238095 0.919047619,38.952381 0.919047619,39.4857143 C0.814285714,40.0190476 1.02857143,40.447619 1.34761905,40.8761905 L1.34761905,40.8761905 Z M15.7761905,76.252381 C16.5238095,77 17.3809524,77.4285714 18.447619,77.4285714 L41.3238095,77.4285714 L41.3238095,54.5571429 L56.6047619,54.5571429 L56.6047619,77.4285714 L79.4809524,77.4285714 C80.547619,77.4285714 81.4047619,77 82.152381,76.252381 C82.9,75.5047619 83.3285714,74.647619 83.3285714,73.5809524 L83.3285714,44.9333333 C83.3285714,44.8285714 83.3285714,44.7238095 83.2190476,44.6142857 L49.0190476,16.3952381 L14.7095238,44.6142857 C14.7095238,44.6142857 14.6,44.7238095 14.6,44.8285714 L14.6,44.9333333 L14.6,73.5809524 C14.6,74.647619 15.0285714,75.5047619 15.7761905,76.252381 L15.7761905,76.252381 Z" id="Fill-214"></path>
        </g>
    </g>
</svg>
