<?xml version="1.0" encoding="UTF-8"?>
<svg width="100px" height="95px" viewBox="0 0 100 95" version="1.1" xmlns="http://www.w3.org/2000/svg" xmlns:xlink="http://www.w3.org/1999/xlink">
    <title>Icon Like</title>
    <g id="Page-1" stroke="none" stroke-width="1" fill="none" fill-rule="evenodd">
        <g id="Desktop-HD" transform="translate(-104.000000, -898.000000)" fill="#FFFFFF">
            <g id="Icon-Like" transform="translate(104.000000, 898.500000)">
                <path d="M99.9875,47.65625 C99.9875,41.015625 94.790625,37.5 87.5,37.5 L66.553125,37.5 C68.0125,31.771875 68.75,26.528125 68.75,21.875 C68.75,3.796875 63.653125,0 59.375,0 C56.415625,0 54.390625,0.309375 51.534375,1.996875 C50.753125,2.459375 50.2125,3.234375 50.05,4.128125 L46.971875,21.053125 C43.66875,29.953125 35.071875,37.615625 28.125,42.990625 L28.125,87.559375 C30.51875,87.559375 33.234375,88.903125 36.1125,90.328125 C39.509375,92.009375 43.01875,93.75 46.875,93.75 L76.5625,93.75 C82.80625,93.75 87.471875,88.8 87.471875,84.375 C87.471875,83.521875 87.38125,82.74375 87.234375,82.040625 C91.096875,80.609375 93.7375,77.3375 93.7375,73.4375 C93.7375,71.578125 93.409375,69.965625 92.73125,68.546875 C95.09375,66.878125 97.4875,64.15 97.4875,60.9375 C97.4875,59.1875 96.678125,57.096875 95.4875,55.671875 C98.20625,53.634375 99.9875,50.625 99.9875,47.65625 L99.9875,47.65625 Z M93.4375,47.65625 C93.4375,51.6125 89.2375,52.08125 88.721875,54.003125 C88.15,56.11875 91.25,56.965625 91.25,60.678125 C91.25,64.584375 86.534375,64.5375 85.8875,66.553125 C85.125,68.94375 87.4375,69.596875 87.4375,73.4375 C87.4375,73.678125 87.4125,73.909375 87.334375,74.1375 C86.690625,77.35 81.9125,77.4375 81.090625,78.759375 C80.2125,80.175 81.215625,81.05625 81.215625,84.375 C81.215625,86.196875 79.165625,87.5 76.5625,87.5 L46.875,87.5 C44.48125,87.5 41.765625,86.153125 38.8875,84.728125 C36.43125,83.5125 33.9125,82.265625 31.25,81.66875 L31.25,48.4875 C39,42.553125 49.053125,33.734375 52.940625,22.934375 C52.996875,22.771875 53.04375,22.603125 53.075,22.434375 L55.925,6.746875 C56.86875,6.346875 57.7375,6.25 59.375,6.25 C60.065625,6.25 62.5,9.990625 62.5,21.875 C62.5,26.41875 61.690625,31.66875 60.090625,37.5 L59.315625,37.5 C57.590625,37.5 56.190625,38.896875 56.190625,40.625 C56.190625,42.353125 57.590625,43.75 59.315625,43.75 L87.5,43.75 C90.575,43.75 93.4375,45.215625 93.4375,47.65625 L93.4375,47.65625 Z" id="Fill-4"></path>
                <path d="M25,93.75 L6.25,93.75 C2.803125,93.75 0,90.946875 0,87.5 L0,43.75 C0,40.303125 2.803125,37.5 6.25,37.5 L25,37.5 C28.446875,37.5 31.25,40.303125 31.25,43.75 L31.25,87.5 C31.25,90.946875 28.446875,93.75 25,93.75 L25,93.75 Z M6.25,43.75 L6.25,87.5 L24.990625,87.5 L25,43.75 L6.25,43.75 L6.25,43.75 Z" id="Fill-5"></path>
            </g>
        </g>
    </g>
</svg>
