<?xml version="1.0" encoding="UTF-8"?>
<svg width="102px" height="102px" viewBox="0 0 102 102" version="1.1" xmlns="http://www.w3.org/2000/svg" xmlns:xlink="http://www.w3.org/1999/xlink">
    <title>fa-linkedin-square</title>
    <g id="Page-1" stroke="none" stroke-width="1" fill="none" fill-rule="evenodd">
        <g id="fa-linkedin-square" transform="translate(0.609524, 0.052682)" fill="#FFFFFF">
            <path d="M6.35450821,94.6181229 C10.087093,98.2311402 14.4071179,100.102631 19.6576897,100.102631 L82.0823103,100.102631 C87.3328821,100.102631 91.652907,98.2311402 95.3854918,94.6181229 C99.0037076,90.999907 100.87,86.5655132 100.87,81.3149414 L100.87,18.8851223 C100.87,13.7541179 99.0037076,9.31972406 95.3854918,5.70150821 C91.652907,2.08329237 87.3328821,0.217 82.0823103,0.217 L19.6576897,0.217 C14.4071179,0.217 10.087093,2.08329237 6.35450821,5.70150821 C2.73629237,9.31972406 0.87,13.7541179 0.87,18.8851223 L0.87,81.3149414 C0.87,86.5655132 2.73629237,90.999907 6.35450821,94.6181229 L6.35450821,94.6181229 Z M17.6718299,19.2386261 C19.3041859,17.720639 21.4044146,17.0188299 23.8581472,17.0188299 C26.4262487,17.0188299 28.40691,17.720639 29.9248971,19.2386261 C31.4428842,20.7566132 32.2590622,22.6229056 32.2590622,24.8375032 C32.2590622,27.0572994 31.5572531,28.9235918 29.9248971,30.4415789 C28.40691,31.9543674 26.3066812,32.6561765 23.7385797,32.6561765 C21.1704783,32.6561765 19.189817,31.9543674 17.6718299,30.4415789 C16.1538428,28.9235918 15.3376648,27.0572994 15.3376648,24.8375032 C15.3376648,22.6229056 16.1538428,20.7566132 17.6718299,19.2386261 L17.6718299,19.2386261 Z M16.2734103,38.7229264 L31.3233167,38.7229264 L31.3233167,83.7634754 L16.2734103,83.7634754 L16.2734103,38.7229264 Z M39.6098628,38.7229264 L54.6597692,38.7229264 L54.6597692,45.257549 L54.5454003,45.257549 C57.6957434,40.2409135 62.2445061,37.672812 68.0825182,37.672812 C73.33309,37.672812 77.5335475,39.4247355 80.6838906,42.809015 C83.8342337,46.1932944 85.4665897,51.2099299 85.4665897,57.9784889 L85.4665897,83.7634754 L70.4166833,83.7634754 L70.4166833,59.6108449 C70.4166833,52.8422859 67.8485818,49.4580064 62.8319464,49.4580064 C60.965654,49.4580064 59.3280994,50.0402481 58.0440487,51.0903624 C56.7599979,52.1404768 55.7098836,53.4245276 55.1276419,54.9425147 C54.7793367,55.6443238 54.6597692,56.9283745 54.6597692,58.5607305 L54.6597692,83.7634754 L39.6098628,83.7634754 C39.7242316,56.5748707 39.7242316,41.5249642 39.6098628,38.7229264 L39.6098628,38.7229264 Z" id="Fill-66"></path>
        </g>
    </g>
</svg>
