<?xml version="1.0" encoding="UTF-8"?>
<svg width="101px" height="91px" viewBox="0 0 101 91" version="1.1" xmlns="http://www.w3.org/2000/svg" xmlns:xlink="http://www.w3.org/1999/xlink">
    <title>fa-quote-left</title>
    <g id="Page-1" stroke="none" stroke-width="1" fill="none" fill-rule="evenodd">
        <g id="fa-quote-left" transform="translate(0.500000, 0.000000)" fill="#FFFFFF">
            <path d="M3.63333333,84.9095238 C5.87619048,87.1571429 8.54761905,88.2238095 11.7571429,88.2238095 L34.7380952,88.2238095 C37.9428571,88.2238095 40.6142857,87.1571429 42.8619048,84.9095238 C45.1047619,82.6666667 46.1714286,79.9952381 46.1714286,76.7857143 L46.1714286,53.8047619 C46.1714286,50.6 45.1047619,47.9285714 42.8619048,45.6857143 C40.6142857,43.4380952 37.9428571,42.3714286 34.7380952,42.3714286 L21.3761905,42.3714286 C19.7714286,42.3714286 18.3809524,41.8380952 17.3142857,40.6619048 C16.1380952,39.5904762 15.6047619,38.2 15.6047619,36.6 L15.6047619,34.7809524 C15.6047619,30.5047619 17.1,26.9809524 20.0904762,23.9857143 C23.0857143,20.9952381 26.6142857,19.4952381 30.8904762,19.4952381 L34.6285714,19.4952381 C35.7,19.4952381 36.552381,19.0714286 37.3,18.3190476 C38.047619,17.5714286 38.4761905,16.7190476 38.4761905,15.647619 L38.5857143,8.06190476 C38.5857143,6.99047619 38.1571429,6.13809524 37.4095238,5.39047619 C36.6619048,4.63809524 35.7,4.21428571 34.7380952,4.21428571 L30.8904762,4.21428571 C26.7190476,4.21428571 22.7666667,5.06666667 19.0238095,6.67142857 C15.2857143,8.27619048 11.9714286,10.4142857 9.2952381,13.1904762 C6.51904762,15.8619048 4.38095238,19.1761905 2.77619048,22.9190476 C1.17619048,26.6571429 0.319047619,30.6142857 0.319047619,34.7809524 L0.319047619,76.7857143 C0.319047619,79.9952381 1.39047619,82.6666667 3.63333333,84.9095238 L3.63333333,84.9095238 Z M57.0761905,84.9095238 C59.3190476,87.1571429 61.9904762,88.2238095 65.2,88.2238095 L88.1761905,88.2238095 C91.3857143,88.2238095 94.0571429,87.1571429 96.3,84.9095238 C98.547619,82.6666667 99.6142857,79.9952381 99.6142857,76.7857143 L99.6142857,53.8047619 C99.6142857,50.6 98.547619,47.9285714 96.3,45.6857143 C94.0571429,43.4380952 91.3857143,42.3714286 88.1761905,42.3714286 L74.8190476,42.3714286 C73.2142857,42.3714286 71.8238095,41.8380952 70.7571429,40.6619048 C69.5809524,39.5904762 69.047619,38.2 69.047619,36.6 L69.047619,34.7809524 C69.047619,30.5047619 70.5428571,26.9809524 73.5333333,23.9857143 C76.5285714,20.9952381 80.0571429,19.4952381 84.3285714,19.4952381 L88.0714286,19.4952381 C89.1380952,19.4952381 89.9952381,19.0714286 90.7428571,18.3190476 C91.4904762,17.5714286 91.9190476,16.7190476 91.9190476,15.647619 L92.0285714,8.06190476 C92.0285714,6.99047619 91.6,6.13809524 90.852381,5.39047619 C90.1,4.63809524 89.1380952,4.21428571 88.1761905,4.21428571 L84.3285714,4.21428571 C80.1619048,4.21428571 76.2095238,5.06666667 72.4666667,6.67142857 C68.7238095,8.27619048 65.4142857,10.4142857 62.7380952,13.1904762 C59.9619048,15.8619048 57.8238095,19.1761905 56.2190476,22.9190476 C54.6142857,26.6571429 53.7619048,30.6142857 53.7619048,34.7809524 L53.7619048,76.7857143 C53.7619048,79.9952381 54.8285714,82.6666667 57.0761905,84.9095238 L57.0761905,84.9095238 Z" id="Fill-175"></path>
        </g>
    </g>
</svg>
