<?xml version="1.0" encoding="UTF-8"?>
<svg width="98px" height="98px" viewBox="0 0 98 98" version="1.1" xmlns="http://www.w3.org/2000/svg" xmlns:xlink="http://www.w3.org/1999/xlink">
    <title>Icon Pencil</title>
    <g id="Page-1" stroke="none" stroke-width="1" fill="none" fill-rule="evenodd">
        <g id="Icon-Pencil">
            <path d="M0.489655172,97.5103448 L8.89655172,63.8758621 L60.0689655,12.7068966 L85.2931034,37.9310345 L34.1241379,89.1034483 L0.489655172,97.5103448 L0.489655172,97.5103448 Z M14.6896552,67.1586207 L9.30344828,88.6965517 L30.8413793,83.3103448 L76.2241379,37.9310345 L60.0689655,21.7758621 L14.6896552,67.1586207 L14.6896552,67.1586207 Z" id="Fill-168" fill="#FDFDFD"></path>
            <path d="M28.5206897,87.1965517 C26.3413793,78.4482759 19.5517241,71.6586207 10.8034483,69.4793103 L12.3586207,63.2551724 C23.4103448,66.0103448 31.9896552,74.5896552 34.7448276,85.6413793 L28.5206897,87.1965517" id="Fill-169" fill="#FFFFFF"></path>
            <polyline id="Fill-170" fill="#FEFEFE" points="27.8551724 74.6827586 23.3172414 70.1448276 68.1448276 25.3172414 72.6827586 29.8551724 27.8551724 74.6827586"></polyline>
            <path d="M4.89655172,93.1034483 L14.9034483,90.6034483 C13.9793103,86.9103448 11.0896552,84.0206897 7.39655172,83.0965517 L4.89655172,93.1034483" id="Fill-171" fill="#FFFFFF"></path>
            <path d="M87.6551724,35.5689655 L62.4310345,10.3448276 L72.4793103,0.296551724 L74.0482759,0.506896552 C86.2275862,2.13103448 95.8689655,11.7724138 97.4931034,23.9517241 L97.7034483,25.5206897 L87.6551724,35.5689655 L87.6551724,35.5689655 Z M71.5,10.3448276 L87.6551724,26.5 L90.8758621,23.2793103 C89.1793103,15.1896552 82.8103448,8.82068966 74.7206897,7.12413793 L71.5,10.3448276 L71.5,10.3448276 Z" id="Fill-172" fill="#FFFFFF"></path>
        </g>
    </g>
</svg>
