<?xml version="1.0" encoding="UTF-8"?>
<svg width="102px" height="86px" viewBox="0 0 102 86" version="1.1" xmlns="http://www.w3.org/2000/svg" xmlns:xlink="http://www.w3.org/1999/xlink">
    <title>fa-reddit</title>
    <g id="Page-1" stroke="none" stroke-width="1" fill="none" fill-rule="evenodd">
        <g id="fa-reddit" transform="translate(0.725143, 0.400000)" fill="#F9F9F9">
            <path d="M2.10478429,47.3623973 C3.09882807,49.076821 4.36653574,50.433067 5.98839665,51.4271108 C5.81132003,52.6907939 5.71875724,53.7774005 5.71875724,54.7714443 C5.71875724,58.8361578 6.89390212,62.7197701 9.1516291,66.3337431 C11.5019189,70.0362543 14.8422279,73.2880251 19.1806053,76.0890554 C23.3338571,78.7975229 28.1229749,80.9667115 33.4513715,82.4114958 C38.872331,83.8562801 44.5629298,84.5806845 50.4346297,84.5806845 C56.3063297,84.5806845 61.9969285,83.8562801 67.3253252,82.4114958 C72.7462846,80.9667115 77.5354024,78.7975229 81.7771925,76.0890554 C86.1155699,73.2880251 89.3673406,70.0362543 91.7136059,66.3337431 C93.9753574,62.7197701 95.1464778,58.8361578 95.1464778,54.7714443 C95.1464778,53.7774005 95.0579395,52.7833567 94.8768384,51.6967502 C96.6838249,50.7027064 98.0400708,49.3504849 99.1226529,47.5434984 C100.116697,45.8250502 100.66,43.9295254 100.66,41.8528995 C100.66,38.6896671 99.5733934,35.9811996 97.3156665,33.7234726 C95.1464778,31.4657457 92.4380103,30.3791391 89.2747778,30.3791391 C86.296671,30.3791391 83.8578429,31.3731829 81.6886542,33.2687077 C73.8288667,28.2139749 64.4357566,25.4129446 53.4167611,24.9622041 L59.2844366,6.44159884 L75.1851127,10.2366729 C75.1851127,12.7640393 76.1791565,15.0217663 77.9861429,16.8287527 C79.7931294,18.6357392 81.9582936,19.5412447 84.5782228,19.5412447 C87.1096137,19.5412447 89.2747778,18.6357392 91.1743271,16.7402144 C92.9813136,14.9332279 93.8827946,12.675501 93.8827946,10.0555718 C93.8827946,7.52418094 92.9813136,5.35901674 91.1743271,3.45946748 C89.2747778,1.652481 87.1096137,0.751 84.5782228,0.751 C82.682698,0.751 80.9642498,1.29430328 79.3383645,2.28834707 C77.8050419,3.37092917 76.629897,4.72717514 75.9054926,6.44159884 L58.3829556,2.28834707 C57.9322151,2.19578429 57.4814746,2.19578429 57.0267096,2.46944816 C56.5759691,2.73908757 56.2137669,3.10128976 56.1252286,3.55203026 L49.3480232,24.8696413 C37.7857244,25.0507424 27.849311,27.8517727 19.538783,33.1801693 C17.281056,31.2846446 14.8422279,30.3791391 12.0411977,30.3791391 C8.8819897,30.3791391 6.16949775,31.4657457 4.00433355,33.7234726 C1.74660657,35.9811996 0.66,38.6896671 0.66,41.8528995 C0.66,43.8409871 1.1107405,45.6479736 2.10478429,47.3623973 L2.10478429,47.3623973 Z M6.71280103,36.4319401 C8.15758532,34.9871558 9.9645718,34.2627514 12.0411977,34.2627514 C13.5785448,34.2627514 14.9347907,34.7175164 16.1984739,35.5304591 C11.7715583,39.0518693 8.7008886,43.0280444 7.07500322,47.4509356 C5.35655505,45.917613 4.54361236,44.1106265 4.54361236,41.8528995 C4.54361236,39.7762737 5.26801674,37.9692872 6.71280103,36.4319401 L6.71280103,36.4319401 Z M21.2572312,36.6130412 C25.1408435,34.0816504 29.6562975,32.1861256 34.7150547,30.8298796 C39.6852737,29.4776581 44.925132,28.7532537 50.4346297,28.7532537 C55.9441275,28.7532537 61.1839858,29.4776581 66.2427431,30.8298796 C71.3015003,32.1861256 75.728416,34.0816504 79.6120283,36.6130412 C83.4030779,39.1404076 86.296671,41.8528995 88.2847585,45.0121075 C90.2688216,48.0868017 91.2628654,51.3385724 91.2628654,54.7714443 C91.2628654,58.1117534 90.2688216,61.3635241 88.2847585,64.5267566 C86.296671,67.5974263 83.4030779,70.3984565 79.6120283,72.8372846 C75.728416,75.364651 71.3015003,77.2642003 66.2427431,78.6164218 C61.1839858,79.9726677 55.9441275,80.6930476 50.4346297,80.6930476 C44.925132,80.6930476 39.6852737,79.9726677 34.7150547,78.6164218 C29.6562975,77.2642003 25.1408435,75.364651 21.2572312,72.8372846 C17.4621571,70.3984565 14.5725885,67.5974263 12.584501,64.5267566 C10.5964134,61.3635241 9.60236961,58.1117534 9.60236961,54.7714443 C9.60236961,51.3385724 10.5964134,48.0868017 12.584501,45.0121075 C14.5725885,41.8528995 17.4621571,39.1404076 21.2572312,36.6130412 L21.2572312,36.6130412 Z M30.7429041,54.228141 C32.0951256,55.584387 33.7210109,56.2162286 35.7090985,56.2162286 C37.516085,56.2162286 39.1419704,55.584387 40.4982164,54.228141 C41.8504379,52.871895 42.5748422,51.2460097 42.5748422,49.3504849 C42.5748422,47.4509356 41.8504379,45.8250502 40.4982164,44.4728287 C39.1419704,43.1165827 37.516085,42.3921784 35.7090985,42.3921784 C33.8135737,42.3921784 32.1876883,43.1165827 30.7429041,44.4728287 C29.3866581,45.8250502 28.6622537,47.4509356 28.6622537,49.3504849 C28.6622537,51.2460097 29.3866581,52.871895 30.7429041,54.228141 L30.7429041,54.228141 Z M34.5339536,69.0422106 C37.8782872,72.3825196 43.2066838,74.008405 50.6157308,74.008405 L50.7042692,74.008405 C58.1133162,74.008405 63.4417128,72.3825196 66.7820219,69.0422106 C67.1442241,68.6800084 67.3253252,68.2292679 67.3253252,67.5974263 C67.3253252,67.054123 67.1442241,66.6033825 66.7820219,66.2411803 C66.4238442,65.8789781 65.9690792,65.697877 65.4298004,65.697877 C64.8864971,65.697877 64.4357566,65.8789781 64.0735544,66.2411803 C61.4536252,68.8611095 57.0267096,70.1247927 50.7042692,70.1247927 L50.6157308,70.1247927 C44.2932904,70.1247927 39.8663748,68.8611095 37.2464456,66.2411803 C36.8842434,65.8789781 36.4335029,65.697877 35.8901996,65.697877 C35.3468963,65.697877 34.8961558,65.8789781 34.5339536,66.2411803 C34.1757759,66.6033825 33.9946748,67.054123 33.9946748,67.5974263 C33.9946748,68.2292679 34.1757759,68.6800084 34.5339536,69.0422106 L34.5339536,69.0422106 Z M60.8217836,54.228141 C62.1780296,55.584387 63.803915,56.2162286 65.7920026,56.2162286 C67.5949646,56.2162286 69.2248744,55.584387 70.5770959,54.228141 C71.9333419,52.871895 72.6537218,51.2460097 72.6537218,49.3504849 C72.6537218,47.4509356 71.9333419,45.8250502 70.5770959,44.4728287 C69.2248744,43.1165827 67.5949646,42.3921784 65.7920026,42.3921784 C63.8924533,42.3921784 62.2665679,43.1165827 60.8217836,44.4728287 C59.4655377,45.8250502 58.7451578,47.4509356 58.7451578,49.3504849 C58.7451578,51.2460097 59.4655377,52.871895 60.8217836,54.228141 L60.8217836,54.228141 Z M84.5782228,4.63461236 C86.0230071,4.63461236 87.2907147,5.17791565 88.3732968,6.26049775 C89.4558789,7.34710431 89.9991822,8.61078751 89.9991822,10.0555718 C89.9991822,11.5929189 89.4558789,12.8566021 88.3732968,13.9391842 C87.2907147,15.0217663 86.0230071,15.5650695 84.5782228,15.5650695 C83.0449002,15.5650695 81.7771925,15.0217663 80.6946104,13.9391842 C79.6120283,12.8566021 79.068725,11.5929189 79.068725,10.0555718 C79.068725,8.61078751 79.6120283,7.34710431 80.6946104,6.26049775 C81.7771925,5.17791565 83.0449002,4.63461236 84.5782228,4.63461236 L84.5782228,4.63461236 Z M89.2747778,34.2627514 C91.3554282,34.2627514 93.0698519,34.9871558 94.607199,36.4319401 C96.0519833,37.9692872 96.7723632,39.7762737 96.7723632,41.8528995 C96.7723632,44.1991648 95.7823439,46.1872524 93.8827946,47.7245995 C92.349472,43.2091455 89.3673406,39.2329704 84.940425,35.7115602 C86.2041082,34.7175164 87.6488925,34.2627514 89.2747778,34.2627514 L89.2747778,34.2627514 Z" id="Fill-249"></path>
        </g>
    </g>
</svg>
