<?xml version="1.0" encoding="UTF-8"?>
<svg width="101px" height="100px" viewBox="0 0 101 100" version="1.1" xmlns="http://www.w3.org/2000/svg" xmlns:xlink="http://www.w3.org/1999/xlink">
    <title>Icon User</title>
    <g id="Page-1" stroke="none" stroke-width="1" fill="none" fill-rule="evenodd">
        <g id="Desktop-HD" transform="translate(-385.000000, -390.000000)" fill="#FFFFFF">
            <g id="Icon-User" transform="translate(385.028846, 390.000000)">
                <path d="M50.1823529,99.7941176 C22.7294118,99.7941176 0.391176471,77.4558824 0.391176471,50 C0.391176471,22.5441176 22.7294118,0.205882353 50.1823529,0.205882353 C77.6382353,0.205882353 99.9764706,22.5441176 99.9764706,50 C99.9764706,77.4558824 77.6382353,99.7941176 50.1823529,99.7941176 L50.1823529,99.7941176 Z M50.1823529,5.67647059 C25.7441176,5.67647059 5.85882353,25.5588235 5.85882353,50 C5.85882353,74.4411765 25.7441176,94.3235294 50.1823529,94.3235294 C74.6235294,94.3235294 94.5088235,74.4411765 94.5088235,50 C94.5088235,25.5588235 74.6235294,5.67647059 50.1823529,5.67647059 L50.1823529,5.67647059 Z" id="Fill-57"></path>
                <path d="M21.1470588,86.0235294 L16.1382353,83.8205882 C17.6588235,80.3764706 22.15,78.3617647 27.3558824,76.0264706 C32.3764706,73.7735294 38.6264706,70.9705882 38.6264706,67.6470588 L38.6264706,63.1235294 C36.8470588,61.6323529 33.8323529,58.4264706 33.3588235,53.6058824 C31.9176471,52.2470588 29.5264706,49.4764706 29.5264706,46.0470588 C29.5264706,43.9647059 30.35,42.2852941 31.0735294,41.2176471 C30.6323529,38.9852941 29.8029412,34.3117647 29.8029412,30.8823529 C29.8029412,19.3941176 37.8029412,11.9705882 50.1823529,11.9705882 C53.7352941,11.9705882 58.05,12.9235294 60.4529412,15.4970588 C66.0647059,16.4852941 70.5647059,23.1294118 70.5647059,30.8823529 C70.5647059,35.8558824 69.6911765,39.9470588 69.1647059,41.9705882 C69.75,42.9617647 70.3823529,44.4323529 70.3823529,46.1382353 C70.3823529,49.9941176 68.4352941,52.4882353 66.6176471,53.8205882 C66.1029412,58.5735294 63.3941176,61.6382353 61.7411765,63.0911765 L61.7411765,67.6470588 C61.7411765,70.4735294 66.8647059,72.3735294 71.8205882,74.2117647 C77.4558824,76.3 83.2852941,78.4617647 85.0941176,83.1882353 L79.9794118,85.1411765 C79.0617647,82.7294118 74.2029412,80.9294118 69.9176471,79.3411765 C63.5235294,76.9676471 56.2735294,74.2794118 56.2735294,67.6470588 L56.2735294,60.2529412 L57.55,59.45 C57.6794118,59.3647059 61.2352941,56.9764706 61.2352941,52.2058824 L61.2352941,50.3558824 L62.9529412,49.6676471 C63.2411765,49.5352941 64.9117647,48.6558824 64.9117647,46.1382353 C64.9117647,45.3676471 64.3235294,44.5058824 64.1176471,44.2647059 L63.1205882,43.0941176 L63.5794118,41.6029412 C63.5941176,41.5558824 65.0970588,36.9323529 65.0970588,30.8823529 C65.0970588,25.7205882 62.1382353,20.8411765 59.0058824,20.8411765 L57.4352941,20.8411765 L56.6441176,19.4852941 C56.0647059,18.4941176 53.6058824,17.4411765 50.1823529,17.4411765 C40.8470588,17.4411765 35.2705882,22.4647059 35.2705882,30.8823529 C35.2705882,34.8588235 36.6647059,41.2617647 36.6794118,41.3264706 L37.0029412,42.8088235 L35.9205882,43.8676471 C35.9205882,43.8676471 34.9941176,44.8470588 34.9941176,46.0470588 C34.9941176,47.5617647 36.8117647,49.4470588 37.6911765,50.1235294 L38.7558824,50.9441176 L38.7647059,52.2970588 C38.7647059,56.8029412 42.6529412,59.3441176 42.8205882,59.45 L44.0794118,60.2558824 L44.0941176,67.6470588 C44.0941176,74.5147059 36.3911765,77.9705882 29.5911765,81.0176471 C26.3088235,82.4882353 21.8176471,84.5058824 21.1470588,86.0235294" id="Fill-58"></path>
            </g>
        </g>
    </g>
</svg>
