<?xml version="1.0" encoding="UTF-8"?>
<svg width="101px" height="122px" viewBox="0 0 101 122" version="1.1" xmlns="http://www.w3.org/2000/svg" xmlns:xlink="http://www.w3.org/1999/xlink">
    <title>fa-youtube</title>
    <g id="Page-1" stroke="none" stroke-width="1" fill="none" fill-rule="evenodd">
        <g id="fa-youtube" fill="#FFFFFF">
            <path d="M1.99729029,110.217952 C2.59992682,112.876009 3.81058058,115.173561 5.86062093,116.981471 C7.79228625,118.671005 10.2082131,119.763284 12.7478956,120.000034 C21.0771934,120.968557 33.5173333,121.452818 50.1866903,121.452818 C66.9744224,121.452818 79.4145623,120.968557 87.6254851,120.000034 C90.2835426,119.763284 92.5757137,118.671005 94.5073791,116.981471 C96.5628001,115.173561 97.7680732,112.876009 98.4944654,110.217952 C99.5813635,105.025592 100.184,97.1751751 100.184,86.6667006 C100.184,75.9214759 99.5813635,68.0710589 98.4944654,62.9970745 C97.8918289,60.3390169 96.5628001,58.0468458 94.5073791,56.2335556 C92.5757137,54.544021 90.2835426,53.4571229 87.6254851,53.0966172 C79.4145623,52.2464692 66.9744224,51.7675884 50.1866903,51.7675884 C33.5173333,51.7675884 21.0771934,52.2464692 12.8662706,53.0966172 C10.2082131,53.4571229 7.91604197,54.544021 5.86062093,56.2335556 C3.92895561,58.0468458 2.59992682,60.3390169 1.99729029,62.9970745 C0.792017218,68.189434 0.184,76.039851 0.184,86.6667006 C0.184,97.2989309 0.792017218,105.149348 1.99729029,110.217952 L1.99729029,110.217952 Z M7.79228625,63.481336 L28.6854797,63.481336 L28.6854797,69.7605935 L21.5614549,69.7605935 L21.5614549,108.286286 L14.797936,108.286286 L14.797936,69.7605935 L7.79228625,69.7605935 L7.79228625,63.481336 L7.79228625,63.481336 Z M20.8350627,13.2365149 C22.8904837,19.5211531 24.2195125,24.229251 24.822149,27.6137008 L24.822149,45.8488367 L31.585668,45.8488367 L31.585668,27.4899451 L39.7965908,0.678 L32.9146968,0.678 L28.3249739,18.4288744 L23.4931203,0.678 L16.3690955,0.678 C17.6981243,4.42295561 19.1455281,8.64679204 20.8350627,13.2365149 L20.8350627,13.2365149 Z M29.6540027,74.8345779 L35.6911294,74.8345779 L35.6911294,99.4727269 C35.6911294,100.920131 35.6911294,101.646523 35.8148851,101.764898 C35.9332602,102.733421 36.4175217,103.212302 37.1439139,103.212302 C38.349187,103.212302 39.6782158,102.24916 41.0072446,100.435869 L41.0072446,74.8345779 L47.0443713,74.8345779 L47.0443713,108.286286 L41.0072446,108.286286 L41.0072446,104.541331 C38.5913177,107.323144 36.2991466,108.770548 34.1253506,108.770548 C32.0699295,108.770548 30.7409007,107.92578 30.2566392,106.236246 C29.8961334,105.149348 29.6540027,103.578188 29.6540027,101.280637 L29.6540027,74.8345779 L29.6540027,74.8345779 Z M41.8520118,42.9486484 C43.5415464,45.2462002 45.8390982,46.3330982 48.8576616,46.3330982 C51.9945999,46.3330982 54.4105268,45.2462002 55.9816863,42.9486484 C57.3107151,41.2591138 57.9133516,38.6010562 57.9133516,34.9798563 L57.9133516,23.142353 C57.9133516,19.5211531 57.3107151,16.8630955 55.9816863,15.1735609 C54.4105268,12.8760091 51.9945999,11.7891111 48.8576616,11.7891111 C45.8390982,11.7891111 43.5415464,12.8760091 41.8520118,15.1735609 C40.5229831,16.8630955 39.9203465,19.5211531 39.9203465,23.142353 L39.9203465,34.9798563 C39.9203465,38.4826812 40.5229831,41.1353581 41.8520118,42.9486484 L41.8520118,42.9486484 Z M45.9574732,21.9370799 C45.9574732,18.7947608 46.9259962,17.2236013 48.8576616,17.2236013 C50.7893269,17.2236013 51.7578499,18.7947608 51.7578499,21.9370799 L51.7578499,36.0667544 C51.7578499,39.2036928 50.7893269,40.7748523 48.8576616,40.7748523 C46.9259962,40.7748523 45.9574732,39.2036928 45.9574732,36.0667544 L45.9574732,21.9370799 L45.9574732,21.9370799 Z M52.3604864,63.481336 L58.2792381,63.481336 L58.2792381,78.095272 C60.2109034,75.6793452 62.2609438,74.4686914 64.5584956,74.4686914 C66.9744224,74.4686914 68.663957,75.6793452 69.3903492,78.213647 C69.750855,79.4243008 69.9929857,81.5980969 69.9929857,84.977166 L69.9929857,98.2620732 C69.9929857,101.522767 69.750855,103.820319 69.3903492,105.025592 C68.663957,107.565275 66.9744224,108.770548 64.5584956,108.770548 C62.3846995,108.770548 60.3292785,107.441519 58.2792381,104.907217 L58.2792381,108.286286 L52.3604864,108.286286 L52.3604864,63.481336 L52.3604864,63.481336 Z M61.2978015,103.212302 C63.1057111,103.212302 63.955859,101.764898 63.955859,98.7463347 L63.955859,84.3745295 C63.955859,81.3559661 63.1057111,79.9031816 61.2978015,79.9031816 C60.3292785,79.9031816 59.2423804,80.3874431 58.2792381,81.3559661 L58.2792381,101.764898 C59.2423804,102.733421 60.3292785,103.212302 61.2978015,103.212302 L61.2978015,103.212302 Z M63.3478418,43.7934157 C63.955859,45.4829502 65.2848878,46.3330982 67.4586839,46.3330982 C69.6270993,46.3330982 71.9246511,44.8803137 74.3405779,42.1038811 L74.3405779,45.8488367 L80.5014603,45.8488367 L80.5014603,12.1496169 L74.3405779,12.1496169 L74.3405779,37.874664 C73.0115491,39.8063293 71.6825203,40.7748523 70.4772472,40.7748523 C69.750855,40.7748523 69.2665935,40.2905908 69.1482185,39.3274485 C69.0244627,39.2036928 69.0244627,38.3589255 69.0244627,36.9115217 L69.0244627,12.1496169 L62.868961,12.1496169 L62.868961,38.7194313 C62.868961,41.0169831 62.987336,42.7065176 63.3478418,43.7934157 L63.3478418,43.7934157 Z M74.7010837,85.7035582 C74.7010837,82.2007334 75.3037202,79.5426758 76.632749,77.8531412 C78.3276642,75.5555895 80.7435911,74.4686914 83.7621544,74.4686914 C86.7807178,74.4686914 89.0728889,75.5555895 90.8861792,77.8531412 C92.0914522,79.5426758 92.6994695,82.2007334 92.6994695,85.7035582 L92.6994695,92.709208 L80.6198354,92.709208 L80.6198354,98.6279596 C80.6198354,101.646523 81.7067334,103.212302 83.7621544,103.212302 C85.2095582,103.212302 86.0543255,102.367535 86.4148313,100.801756 C86.538587,100.317494 86.538587,98.9884654 86.538587,96.6909136 L92.6994695,96.6909136 L92.6994695,97.5410616 C92.6994695,99.8332327 92.6994695,101.038506 92.5757137,101.522767 C92.4573387,102.733421 91.9730772,103.938694 91.1283099,105.149348 C89.5571504,107.565275 87.1412236,108.770548 83.8805295,108.770548 C80.7435911,108.770548 78.3276642,107.565275 76.632749,105.267723 C75.3037202,103.696563 74.7010837,101.038506 74.7010837,97.4173059 L74.7010837,85.7035582 L74.7010837,85.7035582 Z M86.6569621,87.6352236 L86.6569621,84.4929045 C86.6569621,81.4743411 85.6938197,79.9031816 83.6383987,79.9031816 C81.5883584,79.9031816 80.6198354,81.4743411 80.6198354,84.4929045 L80.6198354,87.6352236 L86.6569621,87.6352236 L86.6569621,87.6352236 Z" id="Fill-74"></path>
        </g>
    </g>
</svg>
